<svg id="Livello_1_copia" data-name="Livello 1 copia" xmlns="http://www.w3.org/2000/svg" viewBox="0 0 1161.97 130.54"><defs><style>.cls-1{fill:#231f20;}.cls-2{fill:#ef4136;}.cls-3{fill:#fff;}</style></defs><title>logo</title><path class="cls-1" d="M349.22,232.37v56.45h65.45V232.37h16.59V362.91H414.67V302.54H349.22v60.37H332.63V232.37Z" transform="translate(-332.63 -232.37)"/><rect class="cls-2" y="50.79" width="98.63" height="28.96"/><path class="cls-3" d="M376.42,288.18l5.52,11.73,5.5-11.73h1.73V307.1h-1.94V292.84l-4.44,9.57H381.1l-4.44-9.51v14.2h-1.94V288.18Z" transform="translate(-332.63 -232.37)"/><path class="cls-2" d="M558.2,233.53c13.69,0,26.51,0,37.08,10.59,8.49,8.47,11.61,20.6,11.61,30.8s-3.12,22.33-11.61,30.8c-10.57,10.6-23.39,10.6-37.08,10.6h-7.8v45.43H537.58V233.53Zm-7.8,69.31h7.8c12.82,0,21.31,0,28.07-6.74,4.68-4.62,7.8-11.94,7.8-21.18s-3.12-16.56-7.8-21.18C579.51,247,571,247,558.2,247h-7.8Z" transform="translate(-332.63 -232.37)"/><path class="cls-2" d="M676,233.53V348.28h47.82v13.47H663.21V233.53Z" transform="translate(-332.63 -232.37)"/><path class="cls-2" d="M810,233.53h10.4l39.34,128.22H846.19L837,330H793.34l-9.19,31.76H770.64Zm5.2,20-18,63H833.2Z" transform="translate(-332.63 -232.37)"/><path class="cls-2" d="M964.54,233.53V247H932V361.75H919.14V247H886.56V233.53Z" transform="translate(-332.63 -232.37)"/><path class="cls-2" d="M1081.5,233.53V247h-49.56v42h40.9v13.47h-40.9v59.3h-12.82V233.53Z" transform="translate(-332.63 -232.37)"/><path class="cls-2" d="M1139.72,251.43c6.42-11.74,18.54-19.06,33.1-19.06s26.69,7.32,33.1,19.06c6.24,11.36,6.24,23.49,6.24,46.21s0,34.85-6.24,46.21c-6.41,11.75-18.54,19.06-33.1,19.06s-26.68-7.31-33.1-19.06c-6.24-11.36-6.24-23.49-6.24-46.21S1133.48,262.79,1139.72,251.43Zm11.09,85.68c4.17,7.7,12.31,12.32,22,12.32s17.85-4.62,22-12.32c4.51-8.28,4.51-19.83,4.51-39.47s0-31.19-4.51-39.47c-4.16-7.7-12.3-12.32-22-12.32s-17.84,4.62-22,12.32c-4.5,8.28-4.5,19.83-4.5,39.47S1146.31,328.83,1150.81,337.11Z" transform="translate(-332.63 -232.37)"/><path class="cls-2" d="M1294.11,233.53c13.7,0,26.35,0,36.57,10.59,6.41,6.74,10.57,16.75,10.57,28.88,0,16.75-8,29.45-18.72,35L1343,361.75h-13.86l-18.71-49.86c-3.82.58-7.63.58-16.3.58h-10.22v49.47h-12.82V233.53ZM1283.89,299h10.22c13,0,21,0,27.56-6.74,4.5-4.62,6.75-11.94,6.75-19.25s-2.25-14.64-6.75-19.26c-6.59-6.73-14.56-6.73-27.56-6.73h-10.22Z" transform="translate(-332.63 -232.37)"/><path class="cls-2" d="M1410.56,233.53,1447,313l36.21-79.51h11.44V361.75h-12.82V265.1L1452.49,330H1441.4l-29.28-64.5v96.26h-12.83V233.53Z" transform="translate(-332.63 -232.37)"/></svg>