<svg id="Livello_1" data-name="Livello 1" xmlns="http://www.w3.org/2000/svg" viewBox="0 0 283.46 142.95"><defs><style>.cls-1{fill:#231f20;}.cls-2{fill:#ef4136;}.cls-3{fill:#fff;}</style></defs><title>logo</title><path class="cls-1" d="M394.56,268.29l-26.23,72H356.89L390.16,255H399l33.27,85.36H420.8Z" transform="translate(-279.21 -254.96)"/><path class="cls-1" d="M519.29,300.84v30.51h43.39v9H508.45V255h54.23v9H519.29v27.93" transform="translate(-279.21 -254.96)"/><path class="cls-1" d="M290.06,255v36.91h42.8V255H343.7v85.36H332.86V300.84h-42.8v39.48H279.21V255Z" transform="translate(-279.21 -254.96)"/><rect class="cls-2" y="33.21" width="283.46" height="18.94"/><path class="cls-3" d="M304.39,291.46l3.6,7.67,3.6-7.67h1.13v12.36h-1.27V294.5l-2.91,6.26h-1.1l-2.9-6.22v9.28h-1.27V291.46Z" transform="translate(-279.21 -254.96)"/><path class="cls-3" d="M367.65,291.46v1.3h-5.09v4.05h4.06v1.29h-4.06v4.42h5.09v1.3h-6.36V291.46Z" transform="translate(-279.21 -254.96)"/><path class="cls-3" d="M424.81,291.46v1.3h-3.23v11.06h-1.27V292.76h-3.23v-1.3Z" transform="translate(-279.21 -254.96)"/><path class="cls-3" d="M480.6,291.46v1.3h-5.09v4.05h4.06v1.29h-4.06v4.42h5.09v1.3h-6.36V291.46Z" transform="translate(-279.21 -254.96)"/><path class="cls-3" d="M532.62,291.46c1.35,0,2.6,0,3.62,1a3.93,3.93,0,0,1,1,2.78,3.66,3.66,0,0,1-1.85,3.37l2,5.17h-1.38l-1.85-4.8a10.66,10.66,0,0,1-1.61.06h-1v4.76h-1.27V291.46Zm-1,6.3h1c1.28,0,2.07,0,2.72-.65a2.9,2.9,0,0,0,0-3.71c-.65-.64-1.44-.64-2.72-.64h-1Z" transform="translate(-279.21 -254.96)"/><path class="cls-1" d="M491.59,255v9H464v76.38H453.19V263.94H425.63v-9Z" transform="translate(-279.21 -254.96)"/><path class="cls-2" d="M285.32,359.6c4.06,0,7.85,0,11,3.13a13.82,13.82,0,0,1,0,18.25c-3.13,3.14-6.92,3.14-11,3.14H283v13.46h-3.8v-38ZM283,380.13h2.31c3.8,0,6.31,0,8.32-2a9.68,9.68,0,0,0,0-12.55c-2-2-4.52-2-8.32-2H283Z" transform="translate(-279.21 -254.96)"/><path class="cls-2" d="M320.22,359.6v34h14.17v4h-18v-38Z" transform="translate(-279.21 -254.96)"/><path class="cls-2" d="M359.89,359.6H363l11.65,38h-4l-2.72-9.41H355l-2.72,9.41h-4Zm1.54,5.93-5.33,18.65h10.67Z" transform="translate(-279.21 -254.96)"/><path class="cls-2" d="M405.68,359.6v4H396v34h-3.8v-34h-9.65v-4Z" transform="translate(-279.21 -254.96)"/><path class="cls-2" d="M440.32,359.6v4H425.64V376h12.11v4H425.64v17.57h-3.8v-38Z" transform="translate(-279.21 -254.96)"/><path class="cls-2" d="M457.56,364.9a11.33,11.33,0,0,1,19.61,0c1.85,3.36,1.85,7,1.85,13.69s0,10.32-1.85,13.68a11.33,11.33,0,0,1-19.61,0c-1.84-3.36-1.84-6.95-1.84-13.68S455.72,368.26,457.56,364.9Zm3.29,25.38a7.65,7.65,0,0,0,13,0c1.33-2.46,1.33-5.88,1.33-11.69s0-9.24-1.33-11.69a7.65,7.65,0,0,0-13,0c-1.33,2.45-1.33,5.87-1.33,11.69S459.52,387.82,460.85,390.28Z" transform="translate(-279.21 -254.96)"/><path class="cls-2" d="M503.29,359.6c4.06,0,7.81,0,10.83,3.13a12.25,12.25,0,0,1,3.14,8.56c0,5-2.37,8.72-5.55,10.38l6.06,15.91h-4.11l-5.54-14.77a33.6,33.6,0,0,1-4.83.17h-3v14.65h-3.8v-38Zm-3,19.39h3c3.85,0,6.21,0,8.17-2a9.14,9.14,0,0,0,0-11.41c-2-2-4.32-2-8.17-2h-3Z" transform="translate(-279.21 -254.96)"/><path class="cls-2" d="M537.78,359.6l10.78,23.55,10.73-23.55h3.39v38h-3.8V369l-8.68,19.22h-3.28l-8.67-19.11v28.52h-3.8v-38Z" transform="translate(-279.21 -254.96)"/></svg>