<svg id="Livello_1_copia_3" data-name="Livello 1 copia 3" xmlns="http://www.w3.org/2000/svg" viewBox="0 0 158.33 130.54"><defs><style>.cls-1{fill:#231f20;}.cls-2{fill:#ef4136;}.cls-3{fill:#fff;}</style></defs><title>logo3</title><path class="cls-1" d="M349.22,232.37v56.45h65.45V232.37h16.59V362.91H414.67V302.54H349.22v60.37H332.63V232.37Z" transform="translate(-332.63 -232.37)"/><rect class="cls-2" y="50.79" width="98.63" height="28.96"/><path class="cls-3" d="M376.42,288.18l5.52,11.73,5.5-11.73h1.73V307.1h-1.94V292.84l-4.44,9.57H381.1l-4.44-9.51v14.2h-1.94V288.18Z" transform="translate(-332.63 -232.37)"/><path class="cls-2" d="M460.68,232.37c8.51,0,16.48,0,23.06,6.59,5.28,5.26,7.22,12.81,7.22,19.16S489,272,483.74,277.27c-6.58,6.59-14.55,6.59-23.06,6.59h-4.85v28.26h-8V232.37Zm-4.85,43.11h4.85c8,0,13.25,0,17.46-4.19,2.91-2.88,4.85-7.43,4.85-13.17s-1.94-10.3-4.85-13.18c-4.21-4.19-9.49-4.19-17.46-4.19h-4.85Z" transform="translate(-332.63 -232.37)"/></svg>